# xmcd
#
# Track frame offsets:
#	150
#	15119
#	32084
#	46845
#	63779
#	80484
#	94480
#	111625
#	126623
#	141607
#	159754
#	176737
#	193323
#	210403
#	224905
#	242831
#
# Disc length: 3438 seconds
#
# Revision: 1
# Processed by: cddbd v1.5.2PL0 Copyright (c) Steve Scherf et al.
# Submitted via: EasyCDDAExtractor 12.0.0.1
#
DISCID=f10d6c10
DTITLE=IVY - I Be..
DYEAR=2009
DGENRE=Pop
TTITLE0=Sensation
TTITLE1=Crazy
TTITLE2=Touch Me
TTITLE3=눈물아 안녕
TTITLE4=You Are The Ace (Feat. JR GROOVE)
TTITLE5=Good
TTITLE6=왜 나만 아프죠
TTITLE7=Adios
TTITLE8=여자라서
TTITLE9=안돼요 (Rap Feat. Day Day)
TTITLE10=Left 2 Right
TTITLE11=어차피 잊어야 할 사람
TTITLE12=Zoo (Rap Feat. 길미)
TTITLE13=Peek-A-Boo 
TTITLE14=보란듯이
TTITLE15=Touch Me (Electro Mix)
EXTD=
EXTT0=
EXTT1=
EXTT2=
EXTT3=
EXTT4=
EXTT5=
EXTT6=
EXTT7=
EXTT8=
EXTT9=
EXTT10=
EXTT11=
EXTT12=
EXTT13=
EXTT14=
EXTT15=
PLAYORDER=
